# xmcd
# 
# Track frame offsets:
#   150
#   11760
#   22355
#   35987
#   49540
#   62035
#   77117
#   90485
#   101635
#   116357
#   127147
#   139972
#   152885
#   167792
#   179785
#   190895
#   203727
#   218415
#   230587
# 
# Disc length: 3230 seconds
# 
# Revision: 2
# Processed by: cddbd v1.5.2PL0 Copyright (c) Steve Scherf et al.
# Submitted via: Synapstar 1.0 
# 
DISCID=170c9c13
DTITLE=Various Artist - SAVP04
DYEAR=1900
DGENRE=Country
TTITLE0=Buck Owens/Buckeroos - Act Naturally
TTITLE1=Eddy Arnold - Anytime
TTITLE2=Eddy Arnold - Bouqet Of Roses
TTITLE3=Ray Price - Crazy Arms
TTITLE4=Waylon Jennings - Good Hearted Woman
TTITLE5=Ray Price - Help Me Make It Through The Night
TTITLE6=Patsy Cline - I Fall To Pieces
TTITLE7=Hank Snow - I'm Moving On
TTITLE8=Dolly Parton - Jolene
TTITLE9=Roger Miller - King Of The Road
TTITLE10=Hank Williams - Lovesick Blues
TTITLE11=Charlie Rich - The Most Beautiful Girl
TTITLE12=T Wynette/D Houston - My Elusive Dreams
TTITLE13=Merle Haggard - Okie From Muskogee
TTITLE14=Willie Nelson - On The Road Again
TTITLE15=Connie Smith - Once A Day
TTITLE16=Lynn Anderson - Rose Garden
TTITLE17=Bob Willis/Texas Playboys - San Antonio Rose
TTITLE18=Hank Thompson - The Wild Side Of Life
EXTD=MediaType: Karaoke CD+G Producer: BMG
EXTT0=
EXTT1=
EXTT2=
EXTT3=
EXTT4=
EXTT5=
EXTT6=
EXTT7=
EXTT8=
EXTT9=
EXTT10=
EXTT11=
EXTT12=
EXTT13=
EXTT14=
EXTT15=
EXTT16=
EXTT17=
EXTT18=
PLAYORDER=
